<svg xmlns="http://www.w3.org/2000/svg" xmlns:xlink="http://www.w3.org/1999/xlink" width="2000" zoomAndPan="magnify" viewBox="0 0 1500 1499.999933" height="2000" preserveAspectRatio="xMidYMid meet" version="1.0"><defs><g/><clipPath id="b9c1f2a678"><path d="M 898 576 L 1053.777344 576 L 1053.777344 732 L 898 732 Z M 898 576 " clip-rule="nonzero"/></clipPath><clipPath id="cd17d6478b"><path d="M 446.277344 631 L 672 631 L 672 798 L 446.277344 798 Z M 446.277344 631 " clip-rule="nonzero"/></clipPath><clipPath id="ad5779617f"><path d="M 769 448.265625 L 907 448.265625 L 907 587 L 769 587 Z M 769 448.265625 " clip-rule="nonzero"/></clipPath></defs><path fill="#081ff7" d="M 957.859375 761.269531 L 691.300781 494.710938 C 687.808594 491.214844 684.132812 488.210938 680.367188 485.6875 C 676.265625 482.957031 671.984375 480.675781 667.640625 478.886719 L 667.578125 478.886719 C 663.207031 477.0625 658.589844 475.695312 653.851562 474.722656 C 649.171875 473.78125 644.433594 473.328125 639.695312 473.328125 C 634.957031 473.328125 630.21875 473.78125 625.511719 474.722656 C 620.773438 475.664062 616.1875 477.0625 611.785156 478.886719 L 611.722656 478.886719 C 607.378906 480.675781 603.15625 482.925781 599.148438 485.597656 C 595.261719 488.210938 591.523438 491.246094 588.03125 494.738281 L 586.058594 496.714844 C 583.476562 499.507812 581.136719 502.515625 579.039062 505.644531 C 576.308594 509.746094 574.027344 514.027344 572.238281 518.371094 C 570.445312 522.714844 569.046875 527.363281 568.074219 532.160156 C 567.132812 536.839844 566.679688 541.578125 566.679688 546.316406 C 566.679688 551.023438 567.132812 555.761719 568.074219 560.4375 C 569.046875 565.238281 570.414062 569.882812 572.207031 574.199219 C 573.96875 578.480469 576.214844 582.703125 578.917969 586.773438 C 581.53125 590.691406 584.539062 594.394531 587.910156 597.796875 L 590.429688 600.320312 L 698.742188 708.601562 L 758.125 767.980469 C 822.515625 832.371094 897.171875 819.496094 964.601562 767.980469 Z M 957.859375 761.269531 " fill-opacity="1" fill-rule="evenodd"/><g clip-path="url(#b9c1f2a678)"><path fill="#081ff7" d="M 1001.960938 582.671875 C 991.695312 578.417969 980.730469 576.292969 969.828125 576.292969 C 958.769531 576.292969 947.804688 578.417969 937.601562 582.640625 C 927.820312 586.679688 918.585938 592.753906 910.476562 600.867188 L 910.417969 600.867188 L 901 610.28125 L 898.207031 613.074219 L 901.03125 615.898438 L 1014.113281 729.011719 L 1016.9375 731.835938 L 1029.148438 719.625 L 1029.148438 719.566406 C 1033.15625 715.554688 1036.617188 711.335938 1039.535156 706.960938 C 1042.664062 702.253906 1045.277344 697.363281 1047.339844 692.351562 C 1049.40625 687.339844 1051.015625 682.023438 1052.109375 676.496094 C 1053.171875 671.121094 1053.71875 665.652344 1053.71875 660.183594 C 1053.71875 654.75 1053.171875 649.25 1052.109375 643.875 C 1051.015625 638.347656 1049.40625 633.03125 1047.339844 628.019531 C 1045.277344 623.007812 1042.664062 618.117188 1039.535156 613.410156 C 1036.617188 609.035156 1033.15625 604.8125 1029.148438 600.804688 C 1025.136719 596.796875 1020.914062 593.332031 1016.542969 590.417969 C 1011.863281 587.347656 1006.945312 584.738281 1001.960938 582.671875 Z M 1001.960938 582.671875 " fill-opacity="1" fill-rule="evenodd"/></g><g clip-path="url(#cd17d6478b)"><path fill="#081ff7" d="M 543.535156 636.738281 C 535 633.214844 525.796875 631.421875 516.53125 631.421875 C 507.328125 631.421875 498.15625 633.183594 489.589844 636.738281 L 489.53125 636.738281 C 481.359375 640.109375 473.644531 645.210938 466.839844 652.015625 L 466.78125 652.015625 C 463.558594 655.234375 460.675781 658.789062 458.183594 662.554688 C 455.542969 666.503906 453.355469 670.632812 451.625 674.792969 L 451.625 674.855469 C 449.863281 679.078125 448.527344 683.511719 447.644531 688.066406 C 446.734375 692.5625 446.277344 697.148438 446.277344 701.707031 C 446.277344 706.261719 446.734375 710.847656 447.644531 715.34375 C 448.585938 719.992188 449.921875 724.457031 451.625 728.617188 C 453.355469 732.808594 455.542969 736.910156 458.183594 740.855469 C 460.613281 744.503906 463.5 748.027344 466.871094 751.398438 L 485.914062 770.441406 C 490.015625 774.542969 494.542969 778.066406 499.28125 781.011719 C 504.777344 784.445312 510.578125 787.238281 516.410156 789.425781 C 522.851562 791.855469 529.441406 793.617188 535.789062 794.800781 C 575.515625 802.210938 622.292969 799.417969 671.195312 756.894531 L 653.394531 739.09375 L 566.222656 652.042969 C 559.417969 645.242188 551.675781 640.136719 543.535156 636.738281 Z M 543.535156 636.738281 " fill-opacity="1" fill-rule="evenodd"/></g><g clip-path="url(#ad5779617f)"><path fill="#081ff7" d="M 862.246094 453.828125 C 853.4375 450.183594 843.988281 448.359375 834.484375 448.359375 C 824.976562 448.359375 815.5 450.183594 806.722656 453.828125 C 798.277344 457.320312 790.320312 462.542969 783.363281 469.53125 L 769.027344 483.867188 L 771.214844 486.023438 L 771.273438 486.023438 L 871.355469 586.105469 L 885.664062 571.796875 L 885.722656 571.796875 C 889.003906 568.515625 891.980469 564.84375 894.621094 560.894531 C 897.355469 556.792969 899.605469 552.601562 901.335938 548.378906 C 903.128906 544.066406 904.492188 539.480469 905.433594 534.710938 C 906.347656 530.066406 906.832031 525.355469 906.832031 520.648438 C 906.832031 515.941406 906.375 511.234375 905.433594 506.585938 C 904.492188 501.847656 903.128906 497.261719 901.335938 492.949219 C 899.542969 488.605469 897.296875 484.382812 894.652344 480.433594 L 894.59375 480.375 C 892.070312 476.605469 889.09375 472.960938 885.632812 469.5 C 878.644531 462.542969 870.65625 457.320312 862.246094 453.828125 Z M 862.246094 453.828125 " fill-opacity="1" fill-rule="evenodd"/></g><g fill="#000000" fill-opacity="1"><g transform="translate(391.838832, 976.82644)"><g><path d="M 45.765625 0 L 31.171875 0 C 25.734375 0 21.5 -1.269531 18.46875 -3.8125 C 15.445312 -6.351562 13.9375 -10.472656 13.9375 -16.171875 L 13.9375 -59.578125 L 3.03125 -59.578125 L 3.03125 -73.78125 L 13.9375 -73.78125 L 13.9375 -100.359375 L 31.703125 -100.359375 L 31.703125 -73.78125 L 45.90625 -73.78125 L 45.90625 -59.578125 L 31.703125 -59.578125 L 31.703125 -21.578125 C 31.703125 -19.640625 32.03125 -18.015625 32.6875 -16.703125 C 33.34375 -15.390625 35.03125 -14.734375 37.75 -14.734375 L 45.765625 -14.734375 Z M 45.765625 0 "/></g></g></g><g fill="#000000" fill-opacity="1"><g transform="translate(442.215297, 976.82644)"><g><path d="M 29.328125 1.453125 C 22.398438 1.453125 16.632812 -0.410156 12.03125 -4.140625 C 7.425781 -7.867188 5.125 -13.238281 5.125 -20.25 C 5.125 -24.195312 5.890625 -27.550781 7.421875 -30.3125 C 8.960938 -33.082031 11.003906 -35.34375 13.546875 -37.09375 C 15.910156 -38.757812 18.601562 -40.070312 21.625 -41.03125 C 24.65625 -42 27.707031 -42.789062 30.78125 -43.40625 L 52.75 -47.484375 C 52.570312 -52.046875 51.382812 -55.507812 49.1875 -57.875 C 47 -60.238281 43.710938 -61.421875 39.328125 -61.421875 C 35.992188 -61.421875 33.03125 -60.429688 30.4375 -58.453125 C 27.851562 -56.484375 26.210938 -53.75 25.515625 -50.25 L 7.890625 -50.25 C 8.765625 -56.03125 10.78125 -60.757812 13.9375 -64.4375 C 17.09375 -68.125 20.925781 -70.867188 25.4375 -72.671875 C 29.957031 -74.472656 34.628906 -75.375 39.453125 -75.375 C 43.753906 -75.375 47.878906 -74.757812 51.828125 -73.53125 C 55.773438 -72.300781 59.101562 -70.414062 61.8125 -67.875 C 64.707031 -65.332031 66.769531 -62.414062 68 -59.125 C 69.226562 -55.832031 69.953125 -52.410156 70.171875 -48.859375 C 70.390625 -45.304688 70.5 -41.820312 70.5 -38.40625 L 70.5 0 L 52.75 0 L 52.75 -10 C 50.90625 -6.75 48.664062 -4.289062 46.03125 -2.625 C 43.75 -1.132812 41.179688 -0.0820312 38.328125 0.53125 C 35.484375 1.144531 32.484375 1.453125 29.328125 1.453125 Z M 33.671875 -12.5 C 37.179688 -12.5 40.335938 -13.195312 43.140625 -14.59375 C 46.992188 -16.53125 49.597656 -19.117188 50.953125 -22.359375 C 52.316406 -25.609375 53.046875 -29.644531 53.140625 -34.46875 L 35.515625 -30.90625 C 32.972656 -30.46875 30.890625 -29.894531 29.265625 -29.1875 C 27.640625 -28.488281 26.300781 -27.660156 25.25 -26.703125 C 24.550781 -26.003906 23.984375 -25.171875 23.546875 -24.203125 C 23.109375 -23.234375 22.890625 -22.132812 22.890625 -20.90625 C 22.890625 -18.195312 23.914062 -16.117188 25.96875 -14.671875 C 28.03125 -13.222656 30.597656 -12.5 33.671875 -12.5 Z M 33.671875 -12.5 "/></g></g></g><g fill="#000000" fill-opacity="1"><g transform="translate(519.950256, 976.82644)"><g><path d="M 88 26.5625 L 76.421875 26.5625 C 64.578125 26.5625 58.65625 21.257812 58.65625 10.65625 L 58.65625 -9.34375 C 55.675781 -5.132812 52.539062 -2.28125 49.25 -0.78125 C 45.96875 0.707031 42.132812 1.453125 37.75 1.453125 C 31.34375 1.453125 25.6875 -0.164062 20.78125 -3.40625 C 15.875 -6.65625 12.0625 -11.175781 9.34375 -16.96875 C 6.625 -22.757812 5.265625 -29.421875 5.265625 -36.953125 C 5.265625 -44.492188 6.625 -51.160156 9.34375 -56.953125 C 12.0625 -62.742188 15.875 -67.257812 20.78125 -70.5 C 25.6875 -73.75 31.34375 -75.375 37.75 -75.375 C 42.132812 -75.375 45.96875 -74.582031 49.25 -73 C 52.539062 -71.414062 55.675781 -68.566406 58.65625 -64.453125 L 58.65625 -73.78125 L 76.421875 -73.78125 L 76.421875 6.4375 C 76.421875 8.550781 77.007812 9.9375 78.1875 10.59375 C 79.375 11.25 80.671875 11.578125 82.078125 11.578125 L 88 11.578125 Z M 41.828125 -13.8125 C 47.523438 -13.8125 52.128906 -15.957031 55.640625 -20.25 C 59.148438 -24.550781 60.90625 -30.117188 60.90625 -36.953125 C 60.90625 -43.796875 59.148438 -49.363281 55.640625 -53.65625 C 52.128906 -57.957031 47.523438 -60.109375 41.828125 -60.109375 C 36.210938 -60.109375 31.695312 -57.9375 28.28125 -53.59375 C 24.863281 -49.257812 23.15625 -43.710938 23.15625 -36.953125 C 23.15625 -30.296875 24.863281 -24.773438 28.28125 -20.390625 C 31.695312 -16.003906 36.210938 -13.8125 41.828125 -13.8125 Z M 41.828125 -13.8125 "/></g></g></g><g fill="#000000" fill-opacity="1"><g transform="translate(604.524834, 976.82644)"><g><path d="M 45.765625 0 L 31.171875 0 C 25.734375 0 21.5 -1.269531 18.46875 -3.8125 C 15.445312 -6.351562 13.9375 -10.472656 13.9375 -16.171875 L 13.9375 -59.578125 L 3.03125 -59.578125 L 3.03125 -73.78125 L 13.9375 -73.78125 L 13.9375 -100.359375 L 31.703125 -100.359375 L 31.703125 -73.78125 L 45.90625 -73.78125 L 45.90625 -59.578125 L 31.703125 -59.578125 L 31.703125 -21.578125 C 31.703125 -19.640625 32.03125 -18.015625 32.6875 -16.703125 C 33.34375 -15.390625 35.03125 -14.734375 37.75 -14.734375 L 45.765625 -14.734375 Z M 45.765625 0 "/></g></g></g><g fill="#000000" fill-opacity="1"><g transform="translate(654.90131, 976.82644)"><g><path d="M 16.96875 -81.9375 C 13.988281 -81.9375 11.421875 -82.859375 9.265625 -84.703125 C 7.117188 -86.546875 6.046875 -89.003906 6.046875 -92.078125 C 6.046875 -95.054688 7.117188 -97.488281 9.265625 -99.375 C 11.421875 -101.257812 13.988281 -102.203125 16.96875 -102.203125 C 19.945312 -102.203125 22.507812 -101.257812 24.65625 -99.375 C 26.8125 -97.488281 27.890625 -95.054688 27.890625 -92.078125 C 27.890625 -89.003906 26.8125 -86.546875 24.65625 -84.703125 C 22.507812 -82.859375 19.945312 -81.9375 16.96875 -81.9375 Z M 25.78125 0 L 8.015625 0 L 8.015625 -73.78125 L 25.78125 -73.78125 Z M 25.78125 0 "/></g></g></g><g fill="#000000" fill-opacity="1"><g transform="translate(688.836358, 976.82644)"><g><path d="M 25.78125 0 L 8.015625 0 L 8.015625 -73.78125 L 25.78125 -73.78125 L 25.78125 -64.453125 C 28.675781 -68.484375 31.8125 -71.3125 35.1875 -72.9375 C 38.5625 -74.5625 42.132812 -75.375 45.90625 -75.375 C 50.726562 -75.375 54.867188 -74.382812 58.328125 -72.40625 C 61.796875 -70.4375 64.097656 -67.476562 65.234375 -63.53125 C 67.691406 -67.65625 70.71875 -70.660156 74.3125 -72.546875 C 77.90625 -74.429688 82.113281 -75.375 86.9375 -75.375 C 95.269531 -75.375 101.382812 -72.9375 105.28125 -68.0625 C 109.1875 -63.195312 111.140625 -56.644531 111.140625 -48.40625 L 111.140625 0 L 93.390625 0 L 93.390625 -46.171875 C 93.390625 -51.253906 92.398438 -54.957031 90.421875 -57.28125 C 88.453125 -59.601562 85.582031 -60.765625 81.8125 -60.765625 C 79.882812 -60.765625 78.175781 -60.4375 76.6875 -59.78125 C 75.195312 -59.125 73.96875 -58.269531 73 -57.21875 C 71.332031 -55.289062 70.171875 -52.859375 69.515625 -49.921875 C 68.859375 -46.984375 68.53125 -43.363281 68.53125 -39.0625 L 68.53125 0 L 50.765625 0 L 50.765625 -46.171875 C 50.765625 -51.171875 49.734375 -54.851562 47.671875 -57.21875 C 45.617188 -59.582031 42.75 -60.765625 39.0625 -60.765625 C 35.382812 -60.765625 32.40625 -59.492188 30.125 -56.953125 C 28.71875 -55.285156 27.640625 -53.070312 26.890625 -50.3125 C 26.148438 -47.550781 25.78125 -43.800781 25.78125 -39.0625 Z M 25.78125 0 "/></g></g></g><g fill="#000000" fill-opacity="1"><g transform="translate(807.60906, 976.82644)"><g><path d="M 42.75 1.453125 C 35.382812 1.453125 28.847656 -0.164062 23.140625 -3.40625 C 17.441406 -6.65625 12.992188 -11.195312 9.796875 -17.03125 C 6.597656 -22.863281 5 -29.640625 5 -37.359375 C 5 -44.804688 6.597656 -51.378906 9.796875 -57.078125 C 12.992188 -62.785156 17.421875 -67.257812 23.078125 -70.5 C 28.734375 -73.75 35.289062 -75.375 42.75 -75.375 C 50.195312 -75.375 56.769531 -73.75 62.46875 -70.5 C 68.175781 -67.257812 72.628906 -62.785156 75.828125 -57.078125 C 79.023438 -51.378906 80.625 -44.804688 80.625 -37.359375 C 80.625 -29.722656 79.046875 -22.988281 75.890625 -17.15625 C 72.734375 -11.332031 68.304688 -6.773438 62.609375 -3.484375 C 56.910156 -0.191406 50.289062 1.453125 42.75 1.453125 Z M 42.75 -13.8125 C 48.53125 -13.8125 53.21875 -16.003906 56.8125 -20.390625 C 60.414062 -24.773438 62.21875 -30.429688 62.21875 -37.359375 C 62.21875 -41.742188 61.40625 -45.644531 59.78125 -49.0625 C 58.15625 -52.476562 55.894531 -55.171875 53 -57.140625 C 50.113281 -59.117188 46.695312 -60.109375 42.75 -60.109375 C 38.976562 -60.109375 35.597656 -59.144531 32.609375 -57.21875 C 29.628906 -55.289062 27.304688 -52.613281 25.640625 -49.1875 C 23.984375 -45.769531 23.15625 -41.828125 23.15625 -37.359375 C 23.15625 -30.335938 24.992188 -24.65625 28.671875 -20.3125 C 32.359375 -15.976562 37.050781 -13.8125 42.75 -13.8125 Z M 42.75 -13.8125 "/></g></g></g><g fill="#000000" fill-opacity="1"><g transform="translate(893.367415, 976.82644)"><g><path d="M 88 26.5625 L 76.421875 26.5625 C 64.578125 26.5625 58.65625 21.257812 58.65625 10.65625 L 58.65625 -9.34375 C 55.675781 -5.132812 52.539062 -2.28125 49.25 -0.78125 C 45.96875 0.707031 42.132812 1.453125 37.75 1.453125 C 31.34375 1.453125 25.6875 -0.164062 20.78125 -3.40625 C 15.875 -6.65625 12.0625 -11.175781 9.34375 -16.96875 C 6.625 -22.757812 5.265625 -29.421875 5.265625 -36.953125 C 5.265625 -44.492188 6.625 -51.160156 9.34375 -56.953125 C 12.0625 -62.742188 15.875 -67.257812 20.78125 -70.5 C 25.6875 -73.75 31.34375 -75.375 37.75 -75.375 C 42.132812 -75.375 45.96875 -74.582031 49.25 -73 C 52.539062 -71.414062 55.675781 -68.566406 58.65625 -64.453125 L 58.65625 -73.78125 L 76.421875 -73.78125 L 76.421875 6.4375 C 76.421875 8.550781 77.007812 9.9375 78.1875 10.59375 C 79.375 11.25 80.671875 11.578125 82.078125 11.578125 L 88 11.578125 Z M 41.828125 -13.8125 C 47.523438 -13.8125 52.128906 -15.957031 55.640625 -20.25 C 59.148438 -24.550781 60.90625 -30.117188 60.90625 -36.953125 C 60.90625 -43.796875 59.148438 -49.363281 55.640625 -53.65625 C 52.128906 -57.957031 47.523438 -60.109375 41.828125 -60.109375 C 36.210938 -60.109375 31.695312 -57.9375 28.28125 -53.59375 C 24.863281 -49.257812 23.15625 -43.710938 23.15625 -36.953125 C 23.15625 -30.296875 24.863281 -24.773438 28.28125 -20.390625 C 31.695312 -16.003906 36.210938 -13.8125 41.828125 -13.8125 Z M 41.828125 -13.8125 "/></g></g></g><g fill="#000000" fill-opacity="1"><g transform="translate(977.941992, 976.82644)"><g><path d="M 20.78125 0 L 0.921875 0 L 36.296875 -100.359375 L 57.078125 -100.359375 L 92.46875 0 L 72.609375 0 L 65.765625 -20.65625 L 27.484375 -20.65625 Z M 46.6875 -79.703125 L 32.875 -37.21875 L 60.5 -37.21875 Z M 46.6875 -79.703125 "/></g></g></g><g fill="#000000" fill-opacity="1"><g transform="translate(1071.32916, 976.82644)"><g><path d="M 27.890625 0 L 8.9375 0 L 8.9375 -100.359375 L 27.890625 -100.359375 Z M 27.890625 0 "/></g></g></g></svg>